<svg xmlns="http://www.w3.org/2000/svg" viewBox="0 0 865.5 686"><defs><style>.cls-1{fill:none;}.cls-2{fill:#4d4d4d;}.cls-3{fill:#f2f2f2;}.cls-4{fill:#3b3b3b;}.cls-5{fill:#fff;}.cls-6{fill:#f580ae;}</style></defs><title>catsmashFichier 1</title><g id="Calque_2" data-name="Calque 2"><g id="Calque_1-2" data-name="Calque 1"><circle class="cls-1" cx="261.31" cy="530.45" r="14.11"/><path class="cls-1" d="M611.35,308c-10.33,1.69-16.18,18.37-13.08,37.3s14,32.86,24.29,31.17,16.18-18.37,13.08-37.3S621.64,306.34,611.35,308Z"/><path class="cls-1" d="M555.47,325.1a15,15,0,0,0-.56-1.63,108.1,108.1,0,0,0-19.5-32.89c-23.8-28.1-55.49-40.33-70.79-27.36s-8.46,46.26,15.3,74.32,55.49,40.33,70.79,27.36c6.95-5.89,9.34-15.94,7.65-27.78A51.7,51.7,0,0,0,555.47,325.1Z"/><path class="cls-1" d="M258.38,553.93a5.6,5.6,0,0,0,7.93,7.9,5.6,5.6,0,1,0-7.93-7.9Z"/><circle class="cls-1" cx="239.73" cy="548.5" r="7.03"/><path class="cls-1" d="M238.71,529.85a3.54,3.54,0,1,0-5,0A3.56,3.56,0,0,0,238.71,529.85Z"/><path class="cls-1" d="M662.43,132.46C643.82,140,640,173.75,653.8,207.84a113.42,113.42,0,0,0,15.08,26.65l0,0C680,250.81,694.41,260.12,706,257.37a19.66,19.66,0,0,0,6.52-1.44c18.62-7.55,22.46-41.29,8.64-75.38S681,124.92,662.43,132.46Z"/><circle class="cls-1" cx="807.33" cy="44.36" r="3.53"/><circle class="cls-1" cx="793.23" cy="26.74" r="7.05"/><circle class="cls-1" cx="768.55" cy="33.79" r="7.05"/><circle class="cls-1" cx="786.18" cy="54.94" r="14.1"/><path class="cls-2" d="M818.61,214.4c28.91-55.6,24-141.83,24-141.83C840.19,20,799,4.7,772.64.26A18.67,18.67,0,0,0,750.92,18.7V145.37A270.4,270.4,0,0,0,594,95.48a274.12,274.12,0,0,0-50,4.59S491.45,63,385,92.52a4.76,4.76,0,0,0-3.35,5.5l16.85,80.63v0c-4.9,5-9.55,10.26-14,15.69,0,0-77.67-8.25-124.52,22a7.85,7.85,0,0,0-2.5,10.5L323.81,341q-1.21,12.8-1.23,26a271.4,271.4,0,0,0,13.29,84.23l-15.69,8.46-99,53.55a17.69,17.69,0,0,0-7.69,23.06c7.83,16.64,25.84,40.26,64.9,39.59,17.81-.32,35.08-6,50.24-15.3l48.83-29.9c2.89,3.84,5.89,7.58,9,11.28a21.15,21.15,0,0,0-3.56,4.27c-27.29,42.94-63.74,69.17-108.37,78a192.24,192.24,0,0,1-37,3.49c-100.93,0-203.06-71-204.19-71.78A21.15,21.15,0,0,0,9,590.46C14.1,594.09,123,670,237.4,670a233,233,0,0,0,45.16-4.26c55.32-10.9,100.34-42.35,133.87-93.5a262.66,262.66,0,0,0,29.12,22c1.44,1,2.89,1.91,4.37,2.82a268.8,268.8,0,0,1,27.78-63.24c.77-1.24,1.55-2.51,2.33-3.74A271,271,0,0,1,854.5,443.59a271.4,271.4,0,0,0,10.93-70c0-2.19.07-4.41.07-6.63A270,270,0,0,0,818.61,214.4ZM233.7,524.85a3.54,3.54,0,1,1,0,5A3.55,3.55,0,0,1,233.7,524.85Zm11,28.62a7,7,0,1,1,0-9.94A6.95,6.95,0,0,1,244.7,553.47Zm21.61,8.36a5.6,5.6,0,1,1,0-7.9A5.61,5.61,0,0,1,266.31,561.83Zm5-21.4a14.11,14.11,0,1,1,0-19.95A14.12,14.12,0,0,1,271.28,540.43ZM550.71,364.9c-15.3,13-47,.74-70.79-27.36s-30.64-61.34-15.3-74.32,47-.74,70.79,27.36a108.1,108.1,0,0,1,19.5,32.89,15,15,0,0,1,.56,1.63,51.7,51.7,0,0,1,2.89,12C560.05,349,557.66,359,550.71,364.9Zm71.85,11.6c-10.29,1.69-21.19-12.27-24.29-31.17S601,309.72,611.35,308s21.19,12.27,24.29,31.17S632.89,374.8,622.56,376.5Zm89.93-120.57a19.66,19.66,0,0,1-6.52,1.44c-11.56,2.75-25.94-6.56-37.05-22.84l0,0a113.42,113.42,0,0,1-15.08-26.65c-13.82-34.09-10-67.83,8.63-75.38s44.88,14,58.7,48.09S731.11,248.38,712.49,255.93Zm49-222.14a7,7,0,1,1,7,7.05A7.07,7.07,0,0,1,761.5,33.79ZM786.18,69a14.1,14.1,0,1,1,14.1-14.1A14.1,14.1,0,0,1,786.18,69Zm7.05-35.25a7.06,7.06,0,1,1,7-7A7.07,7.07,0,0,1,793.23,33.79Zm14.1,14.1a3.53,3.53,0,1,1,3.52-3.53A3.54,3.54,0,0,1,807.33,47.89Z"/><path class="cls-3" d="M779.27,565.39s28.06,50.1-.14,78.3c0,0-22,28.31-39.31,13.65a24.65,24.65,0,0,1-4.52-5.5L710.73,612.1a272.54,272.54,0,0,1-192.84,15.48l-10.22,40.79c-7.06,28.2-38.78,14.1-38.78,14.1-42.31-21.15-23.34-88.28-23.34-88.28,1.44,1,2.89,1.91,4.37,2.82a268.8,268.8,0,0,1,27.78-63.24,375.36,375.36,0,0,0,75.8,7.68A372.63,372.63,0,0,0,823,426.59a273.1,273.1,0,0,1,31.48,17A271,271,0,0,1,779.27,565.39Z"/><path class="cls-4" d="M715.74,193.31c-11.6-28.62-33.67-46.71-49.29-40.36s-18.86,34.65-7.26,63.28a97.28,97.28,0,0,0,9.69,18.26l0,0C680,250.81,694.41,260.12,706,257.37a16.13,16.13,0,0,0,2.51-.77C724.09,250.25,727.34,221.94,715.74,193.31ZM684,197.72c-5.32,2.15-12.83-4-16.78-13.71s-2.82-19.39,2.47-21.54,12.83,4,16.78,13.71S689.33,195.57,684,197.72Zm29.05,32.19c-3.31,1.34-8-2.5-10.5-8.6s-1.76-12.13,1.55-13.47,8,2.5,10.51,8.6S716.41,228.57,713.09,229.91Z"/><path class="cls-4" d="M558.36,337.12a51.7,51.7,0,0,0-2.89-12,15,15,0,0,0-.56-1.63,86.81,86.81,0,0,0-14.81-24.39c-18.76-22.14-43.72-31.8-55.81-21.58s-6.66,36.46,12.09,58.6,43.72,31.79,55.81,21.57C557.41,353.26,559.35,345.86,558.36,337.12Zm-41.85-22.53c-4.4,3.7-13.5.18-20.34-7.9s-8.81-17.62-4.4-21.36,13.5-.18,20.34,7.9S520.92,310.85,516.51,314.59Zm22.6,25.07c-2.4,2-7.4.14-11.1-4.27s-4.83-9.66-2.44-11.67,7.41-.14,11.11,4.27S541.51,337.65,539.11,339.66Z"/><path class="cls-5" d="M823,426.59A372.63,372.63,0,0,1,553.5,541.45a375.36,375.36,0,0,1-75.8-7.68c.77-1.24,1.55-2.51,2.33-3.74A271.7,271.7,0,0,1,823,426.59Z"/><ellipse class="cls-6" cx="622.24" cy="358.13" rx="7.05" ry="12.34" transform="translate(-48.36 101.74) rotate(-9)"/></g></g></svg>